<?xml version="1.0" encoding="iso-8859-1"?>
<!-- Generator: Adobe Illustrator 21.0.0, SVG Export Plug-In . SVG Version: 6.00 Build 0)  -->
<svg version="1.1" id="Layer_1" xmlns="http://www.w3.org/2000/svg" xmlns:xlink="http://www.w3.org/1999/xlink" x="0px" y="0px"
	 viewBox="0 0 24 24" enable-background="new 0 0 24 24" xml:space="preserve">
<g>
	<path fill="#303C42" d="M18.5,8C19.4570313,8,22,8,22,5.5c0-0.65625-0.6147461-1.0913086-1.1567383-1.4750977
		c-0.1865234-0.1318359-0.3671875-0.2558594-0.4897461-0.378418C20.2490234,3.5419922,20.128418,3.3603516,20,3.168457
		C19.6533203,2.6479492,19.2216797,2,18.5,2C18.34375,2,18,1.2749023,18,0.5C18,0.2236328,17.7763672,0,17.5,0
		c-0.8813477,0-1.8984375,1.4125977-2.3574219,2.1293945c-0.3222656,0.1958008-1.2006836,0.7905273-1.5976563,1.6635742
		c-0.2016602,0.4433594-0.2822266,1.090332-0.3676758,1.7753906c-0.0981445,0.7875977-0.2202148,1.7675781-0.5307617,2.078125l-3,3
		C8.6323242,11.6606445,6,14.9589844,6,18c0,2.0315552,0.487915,3.9508057,0.7930908,4.9539795
		C4.9202881,22.7346191,4,21.6032104,4,19.5c0-1.2866211,0.5600586-2.5004883,1.1020508-3.6743164
		C5.5639648,14.824707,6,13.8793945,6,13c0-1.5180664-0.1542969-3-2-3c-1.2895508,0-2,0.7104492-2,2
		c0,0.2763672,0.2236328,0.5,0.5,0.5S3,12.2763672,3,12c0-0.7382813,0.2617188-1,1-1c0.6386719,0,1,0.0927734,1,2
		c0,0.659668-0.3916016,1.5083008-0.8061523,2.40625C3.6342773,16.6191406,3,17.9936523,3,19.5C3,22.4018555,4.5981445,24,7.5,24h12
		c0.2763672,0,0.5-0.2236328,0.5-0.5v-1c0-0.8271484-0.6728516-1.5-1.5-1.5H18v-4.5
		c0-1.2573242-0.2646484-2.3598633-0.5205078-3.4257813C17.2329102,12.046875,17,11.0761719,17,10C17,8,17.7285156,8,18.5,8z"/>
	<path fill="#666666" d="M16.5073242,13.3076172C16.7607422,14.3632813,17,15.3608398,17,16.5v5c0,0.2763672,0.2236328,0.5,0.5,0.5
		h1c0.2758789,0,0.5,0.2241211,0.5,0.5V23h-4v-0.5c0-0.7612305-0.5698242-1.3916016-1.3056641-1.4873047l0.1591797-0.1591797
		c1.159668-1.159668,1.4677734-2.7802734,0.8237305-4.3344727C14.0629883,15.0356445,12.7563477,14,11.5,14
		c-0.2763672,0-0.5,0.2236328-0.5,0.5s0.2236328,0.5,0.5,0.5c0.8354492,0,1.8041992,0.8173828,2.253418,1.9018555
		c0.2324219,0.5605469,0.6381836,1.9995117-0.6069336,3.2446289l-1,1c-0.1430664,0.1430664-0.1860352,0.3579102-0.1083984,0.5449219
		C12.1152344,21.878418,12.2978516,22,12.5,22h1c0.2758789,0,0.5,0.2241211,0.5,0.5V23H7.8569336
		C7.6025391,22.2207031,7,20.1494141,7,18c0-2.6879883,2.4833984-5.7763672,3.3535156-6.6464844l3-3
		c0.5532227-0.5532227,0.6870117-1.625,0.815918-2.6616211c0.0727539-0.5805664,0.1474609-1.1806641,0.2856445-1.4848633
		c0.3398438-0.7475586,1.2734375-1.262207,1.2827148-1.2670898c0.0756836-0.0415039,0.140625-0.1020508,0.1860352-0.1748047
		c0.3671875-0.5864258,0.8193359-1.1513672,1.1611328-1.4785156C17.2490234,2.0917969,17.6679688,3,18.5,3
		c0.1865234,0,0.4760742,0.4350586,0.6679688,0.7231445c0.15625,0.234375,0.3037109,0.4560547,0.4785156,0.6303711
		c0.15625,0.15625,0.3818359,0.3198242,0.6191406,0.487793C20.4975586,5.0058594,20.980957,5.3476563,21,5.5009766
		C20.9995117,6.7543945,20.0830078,7,18.5,7C17.2636719,7,16,7.3564453,16,10
		C16,11.1948242,16.2578125,12.2685547,16.5073242,13.3076172z"/>
	<path opacity="0.2" fill="#FFFFFF" d="M7.5624976,18.40625c0-2.6879883,2.4834008-5.7763672,3.353518-6.6464844l3-3
		c0.5532227-0.5532227,0.6870117-1.625,0.815918-2.6616211c0.0727539-0.5805664,0.1474609-1.1806641,0.2856445-1.4848633
		c0.3398438-0.7475586,1.2734375-1.262207,1.2827148-1.2670898c0.0756836-0.0415039,0.140625-0.1020508,0.1860352-0.1748047
		c0.2597046-0.4147339,0.560791-0.8143921,0.8363647-1.1311646c-0.1063232-0.241394-0.1863403-0.5013428-0.2377319-0.7536011
		c-0.3417969,0.3271484-0.7939453,0.8920898-1.1611328,1.4785156c-0.0454102,0.0727539-0.1103516,0.1333008-0.1860352,0.1748047
		c-0.0092773,0.0048828-0.9428711,0.5195313-1.2827148,1.2670898c-0.1381836,0.3041992-0.2128906,0.9042969-0.2856445,1.4848633
		c-0.1289063,1.0366211-0.2626953,2.1083984-0.815918,2.6616211l-3,3C9.4833984,12.2236328,7,15.3120117,7,18
		c0,2.1494141,0.6025391,4.2207031,0.8569336,5h0.4365845C8.006958,22.0389404,7.5624976,20.2541504,7.5624976,18.40625z"/>
	<linearGradient id="SVGID_1_" gradientUnits="userSpaceOnUse" x1="3.5363274" y1="8.1077728" x2="22.9976845" y2="17.1827526">
		<stop  offset="0" style="stop-color:#FFFFFF;stop-opacity:0.2"/>
		<stop  offset="1" style="stop-color:#FFFFFF;stop-opacity:0"/>
	</linearGradient>
	<path fill="url(#SVGID_1_)" d="M18.5,8C19.4570313,8,22,8,22,5.5c0-0.65625-0.6147461-1.0913086-1.1567383-1.4750977
		c-0.1865234-0.1318359-0.3671875-0.2558594-0.4897461-0.378418C20.2490234,3.5419922,20.128418,3.3603516,20,3.168457
		C19.6533203,2.6479492,19.2216797,2,18.5,2C18.34375,2,18,1.2749023,18,0.5C18,0.2236328,17.7763672,0,17.5,0
		c-0.8813477,0-1.8984375,1.4125977-2.3574219,2.1293945c-0.3222656,0.1958008-1.2006836,0.7905273-1.5976563,1.6635742
		c-0.2016602,0.4433594-0.2822266,1.090332-0.3676758,1.7753906c-0.0981445,0.7875977-0.2202148,1.7675781-0.5307617,2.078125l-3,3
		C8.6323242,11.6606445,6,14.9589844,6,18c0,2.0315552,0.487915,3.9508057,0.7930908,4.9539795
		C4.9202881,22.7346191,4,21.6032104,4,19.5c0-1.2866211,0.5600586-2.5004883,1.1020508-3.6743164
		C5.5639648,14.824707,6,13.8793945,6,13c0-1.5180664-0.1542969-3-2-3c-1.2895508,0-2,0.7104492-2,2
		c0,0.2763672,0.2236328,0.5,0.5,0.5S3,12.2763672,3,12c0-0.7382813,0.2617188-1,1-1c0.6386719,0,1,0.0927734,1,2
		c0,0.659668-0.3916016,1.5083008-0.8061523,2.40625C3.6342773,16.6191406,3,17.9936523,3,19.5C3,22.4018555,4.5981445,24,7.5,24h12
		c0.2763672,0,0.5-0.2236328,0.5-0.5v-1c0-0.8271484-0.6728516-1.5-1.5-1.5H18v-4.5
		c0-1.2573242-0.2646484-2.3598633-0.5205078-3.4257813C17.2329102,12.046875,17,11.0761719,17,10C17,8,17.7285156,8,18.5,8z"/>
</g>
<g>
</g>
<g>
</g>
<g>
</g>
<g>
</g>
<g>
</g>
<g>
</g>
<g>
</g>
<g>
</g>
<g>
</g>
<g>
</g>
<g>
</g>
<g>
</g>
<g>
</g>
<g>
</g>
<g>
</g>
</svg>
