<?xml version="1.0" standalone="no"?>
<!DOCTYPE svg PUBLIC "-//W3C//DTD SVG 20010904//EN"
 "http://www.w3.org/TR/2001/REC-SVG-20010904/DTD/svg10.dtd">
<svg version="1.0" xmlns="http://www.w3.org/2000/svg"
 width="1760.000000pt" height="1760.000000pt" viewBox="0 0 1760.000000 1760.000000"
 preserveAspectRatio="xMidYMid meet">
<metadata>
Created by potrace 1.14, written by Peter Selinger 2001-2017
</metadata>
<g transform="translate(0.000000,1760.000000) scale(0.100000,-0.100000)"
fill="#000000" stroke="none">
<path d="M10500 14630 c-136 -17 -309 -71 -445 -138 -100 -50 -351 -213 -385
-252 -3 -3 -48 -44 -100 -91 -52 -46 -113 -103 -136 -124 -22 -22 -55 -53 -73
-68 -17 -15 -29 -32 -26 -36 2 -5 -4 -11 -15 -14 -12 -3 -20 -14 -20 -25 0
-13 -8 -22 -20 -24 -12 -2 -20 -7 -20 -13 1 -5 -8 -12 -19 -17 -13 -5 -21 -16
-21 -31 0 -26 -46 -68 -88 -81 -13 -4 -21 -13 -19 -19 2 -7 -4 -16 -14 -22 -9
-5 -38 -25 -64 -42 -25 -18 -50 -33 -54 -33 -14 0 -82 -71 -91 -96 -6 -15 -18
-24 -32 -24 -13 0 -32 -7 -42 -15 -11 -8 -26 -15 -34 -15 -8 0 -25 -11 -38
-25 -13 -14 -32 -25 -43 -25 -11 0 -24 -6 -28 -14 -4 -7 -25 -19 -46 -26 -21
-6 -41 -18 -44 -26 -3 -8 -16 -14 -28 -14 -13 0 -30 -6 -37 -12 -7 -7 -35 -24
-61 -37 -27 -12 -46 -25 -43 -28 2 -3 19 2 35 10 17 9 31 12 31 7 0 -10 35 3
152 54 20 9 43 16 51 16 8 0 28 7 43 15 16 8 37 15 47 15 9 0 17 7 17 16 0 8
4 13 10 9 5 -3 27 6 50 20 22 14 40 22 40 19 0 -4 7 -1 15 6 8 6 18 9 23 7 4
-3 30 12 57 34 28 21 60 39 71 39 12 0 33 9 46 20 14 10 28 17 30 14 3 -2 11
2 18 11 7 8 21 15 31 15 11 0 19 4 19 9 0 5 11 12 25 15 13 3 41 21 61 40 21
19 43 32 51 29 7 -3 13 0 13 6 0 6 3 10 8 9 4 -2 32 13 62 32 30 19 64 39 75
45 12 5 60 35 108 65 48 30 96 60 106 65 10 6 25 16 32 22 32 25 307 167 421
217 147 64 276 106 418 136 87 19 138 23 295 24 254 0 406 -28 593 -110 70
-31 242 -128 267 -151 11 -10 40 -34 65 -54 67 -54 148 -134 231 -229 99 -113
96 -110 108 -110 10 0 15 -14 12 -32 0 -4 7 -4 16 -1 12 5 14 3 8 -7 -5 -8 -4
-11 2 -7 12 7 -1 58 -32 131 -45 105 -260 382 -415 536 -194 191 -284 249
-489 314 -188 59 -243 68 -466 71 -115 2 -239 0 -275 -5z"/>
<path d="M8241 14462 c-46 -4 -76 -12 -79 -19 -2 -7 -12 -13 -22 -13 -10 0
-22 -5 -26 -12 -5 -7 0 -9 14 -6 11 3 36 2 54 -2 l33 -8 -33 -1 c-18 -1 -42
-10 -54 -21 -33 -31 -67 -23 -36 8 9 9 9 12 -1 12 -7 0 -9 5 -5 13 4 6 -7 -1
-24 -17 -23 -21 -37 -27 -55 -22 -19 4 -29 0 -43 -19 -10 -13 -31 -27 -46 -30
-15 -4 -28 -10 -28 -15 0 -5 -18 -16 -40 -26 -22 -10 -40 -24 -40 -31 0 -7 -6
-10 -15 -7 -9 4 -15 0 -15 -8 0 -8 -19 -30 -42 -49 -71 -57 -120 -109 -115
-122 2 -7 -6 -19 -19 -27 -13 -9 -34 -31 -47 -50 -13 -19 -29 -34 -36 -32 -8
2 -10 -4 -6 -18 5 -16 3 -19 -11 -13 -13 5 -15 2 -10 -15 4 -11 2 -23 -4 -27
-5 -3 -10 -1 -10 6 0 10 -3 10 -12 1 -10 -10 -10 -15 1 -21 11 -7 11 -9 0 -13
-7 -2 -14 -21 -14 -42 -1 -21 -8 -42 -16 -46 -7 -5 -11 -11 -8 -14 2 -3 9 -2
15 2 15 9 64 89 64 103 0 6 7 17 15 26 8 8 13 19 10 24 -4 5 2 9 12 9 10 1 30
19 45 40 24 34 25 40 10 41 -10 0 -4 5 13 12 28 11 75 50 75 62 0 3 0 9 0 13
0 4 16 14 35 20 31 12 63 35 120 87 33 30 65 46 75 40 6 -3 8 0 5 7 -6 17 120
78 163 78 18 0 44 7 58 16 17 12 38 15 69 12 24 -3 48 -1 53 4 6 6 35 7 74 3
63 -8 63 -8 30 -19 -18 -6 -30 -15 -26 -18 7 -8 -81 -50 -105 -51 -8 0 -16 -9
-19 -19 -3 -13 -10 -17 -23 -13 -12 4 -21 1 -25 -9 -3 -9 -11 -16 -16 -16 -18
0 -74 -56 -70 -69 3 -9 0 -11 -7 -6 -15 8 -79 -33 -86 -56 -3 -9 -21 -27 -39
-40 -32 -21 -97 -102 -121 -151 -7 -13 -20 -37 -29 -55 -9 -17 -16 -39 -16
-48 0 -9 -7 -23 -15 -31 -15 -16 -21 -64 -7 -64 12 0 42 59 36 74 -3 7 2 19
11 26 8 7 15 20 15 28 0 22 50 72 72 72 11 0 18 7 18 20 0 11 6 19 12 18 7 -2
14 7 16 20 3 22 22 32 22 11 0 -6 15 5 33 24 17 18 40 36 50 40 9 3 17 11 17
17 0 6 5 8 12 4 8 -5 9 -2 5 9 -3 10 -2 18 3 18 6 1 14 2 20 3 5 0 15 7 22 14
6 6 18 12 25 12 7 0 10 7 6 17 -4 11 -3 14 5 9 15 -9 84 32 76 45 -3 5 4 9 15
9 27 0 52 11 46 20 -2 4 5 8 18 8 12 0 50 11 84 25 94 38 302 77 411 77 23 0
42 5 42 10 0 6 -7 10 -15 10 -8 0 -15 4 -15 10 0 16 -112 68 -207 96 -96 28
-243 38 -382 26z m-18 -39 c-7 -2 -19 -2 -25 0 -7 3 -2 5 12 5 14 0 19 -2 13
-5z m-223 -73 c0 -5 -2 -10 -4 -10 -3 0 -8 5 -11 10 -3 6 -1 10 4 10 6 0 11
-4 11 -10z m-10 -360 c0 -5 -4 -10 -10 -10 -5 0 -10 5 -10 10 0 6 5 10 10 10
6 0 10 -4 10 -10z"/>
<path d="M7752 13600 c-16 -26 -15 -40 1 -40 8 0 14 12 14 30 0 17 -1 30 -1
30 -1 0 -7 -9 -14 -20z"/>
<path d="M7383 13400 c0 -25 2 -35 4 -22 2 12 2 32 0 45 -2 12 -4 2 -4 -23z"/>
<path d="M7715 13406 c-5 -27 -4 -40 5 -46 7 -5 10 -18 6 -36 -3 -16 -2 -36 4
-44 12 -19 13 65 1 125 l-8 40 -8 -39z"/>
<path d="M11030 13283 c8 -3 38 -22 65 -42 28 -20 57 -41 66 -46 9 -6 42 -27
73 -48 32 -21 87 -49 123 -64 35 -14 67 -32 70 -39 3 -7 29 -27 59 -44 30 -16
54 -35 54 -41 0 -6 8 -8 18 -5 19 6 47 -28 37 -45 -4 -5 -3 -9 2 -7 22 5 94
-25 104 -43 8 -15 18 -20 35 -16 13 2 25 0 26 -4 3 -9 285 -119 306 -119 7 0
20 -4 30 -9 26 -15 152 -59 197 -70 250 -61 335 -76 605 -106 182 -20 378 -33
605 -40 249 -8 307 -12 387 -24 34 -5 99 -12 143 -16 137 -11 281 -34 440 -69
61 -13 135 -30 165 -36 213 -46 312 -77 613 -196 76 -30 149 -59 162 -64 14
-5 27 -5 30 -1 2 5 -37 33 -88 61 -50 29 -108 62 -127 73 -115 65 -465 242
-500 252 -14 4 -38 13 -55 20 -115 48 -169 64 -315 94 -86 18 -233 42 -348 55
-162 20 -217 26 -297 31 -49 3 -135 10 -190 15 -322 31 -426 42 -480 50 -33 6
-83 10 -112 10 -29 0 -85 7 -125 15 -40 8 -131 24 -203 35 -181 30 -343 69
-745 182 -178 50 -533 179 -698 253 -18 8 -38 15 -44 15 -6 0 -19 6 -27 14 -9
8 -29 17 -46 20 -16 3 -23 3 -15 -1z m437 -239 c-3 -3 -12 -4 -19 -1 -8 3 -5
6 6 6 11 1 17 -2 13 -5z"/>
<path d="M7370 13240 c0 -22 5 -40 10 -40 6 0 10 18 10 40 0 22 -4 40 -10 40
-5 0 -10 -18 -10 -40z"/>
<path d="M7700 13160 c0 -29 4 -40 15 -40 11 0 15 11 15 40 0 29 -4 40 -15 40
-11 0 -15 -11 -15 -40z"/>
<path d="M7370 13087 c0 -18 -5 -38 -11 -44 -9 -9 -7 -10 10 -6 17 4 21 13 21
44 0 22 -4 39 -10 39 -5 0 -10 -15 -10 -33z"/>
<path d="M7381 13004 c0 -11 3 -14 6 -6 3 7 2 16 -1 19 -3 4 -6 -2 -5 -13z"/>
<path d="M7757 12925 c-4 -23 -2 -44 4 -50 7 -6 10 -6 8 0 -1 6 1 17 5 26 4 8
3 26 -2 39 -8 22 -9 21 -15 -15z"/>
<path d="M7418 12793 c7 -3 16 -2 19 1 4 3 -2 6 -13 5 -11 0 -14 -3 -6 -6z"/>
<path d="M6806 12771 c-3 -5 -18 -11 -33 -14 -16 -2 -73 -21 -128 -42 -341
-128 -451 -154 -680 -162 -125 -4 -207 0 -375 17 -232 24 -584 32 -725 16 -66
-7 -76 -10 -55 -18 20 -7 22 -11 10 -18 -20 -12 -7 -22 29 -24 37 -1 42 -16 7
-16 -27 0 -42 -15 -26 -25 21 -13 9 -21 -32 -23 -73 -4 -116 -13 -129 -28 -9
-11 -8 -14 5 -14 10 0 15 -4 12 -8 -3 -5 -34 -9 -70 -10 -36 0 -73 -5 -83 -11
-17 -10 -17 -10 2 -11 12 0 16 -3 8 -8 -6 -4 62 -7 150 -7 89 0 198 -3 242 -7
191 -15 350 -29 480 -44 351 -40 528 -18 865 107 135 51 200 80 200 91 0 16
25 35 56 42 17 4 48 22 69 41 22 18 43 31 47 29 4 -3 8 0 8 5 0 6 6 11 13 11
7 0 23 9 35 20 12 11 26 20 31 20 16 0 101 82 95 91 -7 12 -21 11 -28 0z
m-1926 -285 c0 -2 -7 -7 -16 -10 -8 -3 -12 -2 -9 4 6 10 25 14 25 6z"/>
<path d="M7802 12756 c7 -8 15 -12 17 -11 5 6 -10 25 -20 25 -5 0 -4 -6 3 -14z"/>
<path d="M7927 12398 c4 -7 8 -26 8 -43 0 -27 4 -30 33 -33 27 -3 32 -7 32
-28 0 -14 8 -33 17 -42 16 -16 16 -16 10 1 -4 10 -7 32 -7 48 0 18 -4 28 -10
24 -6 -3 -13 2 -16 12 -13 38 -34 77 -34 64 0 -12 -3 -12 -12 -3 -16 16 -31
15 -21 0z m43 -56 c0 -7 -4 -10 -10 -7 -5 3 -10 16 -10 28 0 18 2 19 10 7 5
-8 10 -21 10 -28z"/>
<path d="M4301 12379 c-13 -5 -21 -12 -17 -16 3 -3 16 -1 29 5 12 6 33 13 47
15 22 4 21 4 -5 5 -16 0 -41 -4 -54 -9z"/>
<path d="M4363 12373 c-57 -5 -55 -21 1 -19 24 0 42 4 40 8 -2 4 8 9 23 11 25
4 25 4 3 4 -14 0 -44 -2 -67 -4z"/>
<path d="M4421 12356 c2 -2 22 -6 44 -9 27 -4 35 -3 25 3 -14 9 -79 15 -69 6z"/>
<path d="M4290 12340 c-23 -14 -9 -17 60 -10 50 5 56 7 23 8 -23 1 -47 4 -55
7 -7 3 -20 1 -28 -5z"/>
<path d="M8051 12233 c1 -5 0 -10 -1 -13 -8 -22 -7 -46 3 -52 13 -8 25 14 26
50 1 13 -5 22 -14 22 -8 0 -14 -3 -14 -7z"/>
<path d="M8087 12196 c-4 -10 -1 -13 9 -9 7 3 14 9 14 14 0 14 -17 10 -23 -5z"/>
<path d="M8111 12170 c-13 -7 -12 -14 4 -44 20 -37 39 -46 48 -23 3 7 6 5 6
-5 1 -12 -6 -18 -20 -18 -11 0 -19 -3 -17 -8 11 -25 76 -102 91 -107 9 -4 17
-15 17 -26 0 -11 7 -19 16 -19 9 0 27 -11 39 -24 13 -14 26 -22 29 -19 3 4 6
-3 6 -14 0 -14 10 -24 29 -31 16 -6 37 -24 47 -41 10 -17 24 -31 31 -31 8 0
13 -14 13 -40 0 -38 2 -40 30 -40 28 0 30 -2 30 -40 0 -39 -1 -40 -35 -40 -34
0 -35 1 -35 40 0 33 -3 40 -20 40 -11 0 -20 -7 -20 -15 0 -11 -11 -15 -41 -15
-24 0 -38 -4 -34 -10 3 -5 -1 -10 -9 -10 -9 0 -16 7 -16 15 0 8 5 15 10 15 6
0 10 5 10 11 0 8 -13 9 -39 5 -22 -3 -41 -2 -43 3 -2 5 -19 12 -39 16 -32 6
-37 4 -42 -15 -4 -16 -2 -19 7 -11 9 8 19 3 37 -17 13 -15 17 -21 9 -14 -17
14 -30 16 -30 2 0 -5 11 -12 25 -16 14 -3 25 -12 25 -19 0 -17 48 -48 65 -41
9 3 12 0 8 -10 -3 -9 2 -14 15 -14 11 0 22 -7 26 -15 3 -8 12 -12 21 -9 11 5
14 2 9 -10 -3 -9 -1 -16 5 -16 6 0 11 5 11 10 0 6 5 10 11 10 6 0 8 -7 5 -16
-4 -12 -1 -14 14 -9 13 4 23 0 32 -14 7 -12 21 -21 30 -21 10 0 18 -7 18 -15
0 -22 38 -39 56 -24 14 11 15 10 18 -12 1 -9 39 -27 99 -46 20 -6 22 -19 5
-26 -7 -3 1 -3 18 0 23 3 33 1 37 -11 4 -9 13 -16 21 -16 19 0 142 -56 150
-68 3 -6 24 -13 46 -17 22 -4 40 -11 40 -17 0 -6 7 -8 15 -4 8 3 19 -2 24 -12
5 -9 11 -16 13 -14 3 3 26 -3 63 -18 11 -4 38 -15 60 -23 61 -24 307 -79 410
-91 22 -2 83 -10 135 -17 52 -6 185 -12 295 -12 209 -1 390 19 585 64 117 27
320 94 405 134 137 65 161 75 173 75 7 0 12 5 12 10 0 6 8 10 19 10 10 0 35
11 55 25 20 13 36 22 36 20 0 -6 141 88 195 129 22 17 56 39 76 49 20 10 49
30 64 45 16 15 37 32 46 37 45 27 129 97 168 141 23 27 60 67 80 89 55 59 91
105 91 117 0 13 -84 -36 -135 -79 -22 -18 -74 -57 -115 -85 -41 -28 -79 -57
-83 -65 -4 -7 -14 -13 -22 -13 -7 0 -15 -3 -17 -7 -11 -26 -202 -139 -373
-221 -88 -42 -135 -62 -285 -117 -126 -47 -307 -83 -479 -96 -208 -16 -521 -7
-641 19 -220 48 -419 101 -560 150 -177 62 -199 71 -280 108 -116 55 -232 115
-240 124 -9 11 -205 121 -210 119 -6 -3 -81 52 -162 119 -35 29 -68 57 -74 62
-7 5 -15 6 -18 3 -3 -4 -15 3 -26 15 -12 12 -27 22 -35 22 -8 0 -15 7 -15 15
0 17 -35 55 -51 55 -6 0 -9 6 -6 14 5 13 -25 46 -42 46 -5 0 -11 9 -13 20 -2
14 -7 17 -17 10z m149 -564 c0 -3 -4 -8 -10 -11 -5 -3 -10 -1 -10 4 0 6 5 11
10 11 6 0 10 -2 10 -4z m275 -176 c3 -5 -1 -10 -9 -10 -9 0 -16 5 -16 10 0 6
4 10 9 10 6 0 13 -4 16 -10z"/>
<path d="M8055 11790 c3 -5 8 -10 11 -10 2 0 4 5 4 10 0 6 -5 10 -11 10 -5 0
-7 -4 -4 -10z"/>
<path d="M8130 11740 c0 -11 4 -20 9 -20 6 0 9 9 8 20 -1 11 -5 20 -9 20 -4 0
-8 -9 -8 -20z"/>
<path d="M8428 11463 c7 -3 16 -2 19 1 4 3 -2 6 -13 5 -11 0 -14 -3 -6 -6z"/>
<path d="M2891 11417 c-32 -12 -36 -18 -86 -162 -29 -82 -91 -244 -138 -360
-47 -115 -112 -285 -146 -377 -33 -91 -83 -223 -111 -294 -28 -70 -74 -188
-101 -263 -28 -75 -79 -203 -113 -286 -35 -82 -87 -215 -116 -295 -29 -80 -89
-235 -133 -345 -43 -110 -109 -283 -147 -385 -37 -102 -89 -237 -115 -300 -26
-63 -81 -198 -122 -300 -141 -350 -316 -628 -475 -757 -97 -78 -160 -105 -281
-122 -81 -11 -101 -24 -92 -60 4 -14 12 -29 18 -33 15 -10 477 -10 999 -1
l396 6 11 23 c14 31 0 40 -94 59 -109 22 -214 73 -273 132 -61 61 -128 190
-141 270 -16 103 9 250 77 438 58 162 145 395 192 515 23 58 55 143 72 190 17
47 35 91 40 97 8 10 169 13 703 13 l692 0 28 -62 c16 -35 81 -193 145 -353 65
-159 133 -328 153 -375 20 -47 65 -168 100 -270 36 -102 86 -239 112 -305 26
-66 66 -176 90 -244 24 -68 50 -128 59 -133 19 -10 2691 -6 2702 4 4 5 2 19
-4 32 -9 19 -35 32 -139 66 -150 49 -178 65 -228 126 -57 69 -73 147 -86 409
-13 253 -6 1031 11 1200 24 246 91 407 230 546 144 145 262 198 458 206 132 6
211 -6 297 -48 136 -65 236 -178 275 -309 37 -124 42 -228 47 -921 6 -862 -5
-987 -101 -1103 -47 -57 -114 -89 -247 -116 -57 -12 -106 -26 -110 -31 -3 -5
-3 -23 -1 -40 l4 -30 701 6 c385 3 704 8 709 11 4 3 8 14 8 24 0 18 -62 48
-137 66 -15 4 -62 20 -103 36 -144 56 -201 154 -220 383 -13 145 -12 1107 0
1259 14 166 60 362 109 461 72 146 177 252 312 315 153 70 436 68 584 -5 133
-65 194 -133 254 -282 65 -161 76 -309 75 -1033 -1 -663 -6 -747 -55 -893 -38
-114 -78 -173 -135 -199 -43 -19 -162 -50 -236 -63 -36 -6 -38 -8 -36 -43 l1
-37 686 3 c586 2 689 5 708 18 31 20 29 42 -4 50 -16 3 -48 12 -73 19 -25 8
-77 23 -117 35 -56 16 -81 29 -108 58 -43 46 -86 126 -116 217 l-23 70 -7 820
c-5 710 -8 830 -23 892 -74 325 -301 506 -699 559 -189 25 -361 6 -563 -61
-174 -58 -317 -148 -510 -321 -40 -35 -74 -64 -77 -64 -3 0 -35 38 -71 83
-111 143 -209 233 -302 278 -226 110 -499 122 -789 37 -164 -48 -332 -149
-513 -306 -36 -31 -67 -51 -72 -46 -7 8 -30 174 -47 352 -3 34 -8 62 -11 62
-3 0 -93 -11 -201 -25 -108 -14 -308 -38 -445 -54 -137 -17 -254 -35 -260 -41
-20 -20 9 -45 70 -58 150 -34 165 -41 231 -104 68 -66 103 -129 122 -218 30
-140 31 -1669 2 -1828 -23 -126 -40 -165 -94 -215 -62 -59 -100 -79 -212 -112
-106 -30 -152 -31 -292 -4 -281 53 -361 104 -500 315 -80 124 -228 446 -393
859 -48 121 -113 279 -145 350 -31 72 -85 202 -120 290 -35 88 -88 217 -118
286 -31 70 -87 207 -125 305 -38 99 -89 220 -112 269 -23 50 -79 185 -126 301
-46 116 -120 296 -164 400 -45 104 -95 225 -112 269 -91 237 -241 582 -259
598 -25 20 -106 22 -158 4z m-121 -1007 c58 -161 96 -257 163 -405 25 -55 79
-188 120 -295 41 -107 101 -256 132 -330 50 -116 165 -409 165 -417 0 -2 -288
-3 -640 -3 -352 0 -640 2 -640 5 0 12 75 209 129 339 34 80 86 215 115 299 30
83 92 249 139 367 47 118 108 278 135 355 88 248 96 265 117 243 7 -7 36 -78
65 -158z m-920 -3210 c0 -5 -4 -10 -10 -10 -5 0 -10 5 -10 10 0 6 5 10 10 10
6 0 10 -4 10 -10z"/>
<path d="M11460 9815 c-194 -28 -447 -104 -524 -157 -99 -68 -140 -140 -140
-243 0 -61 4 -77 32 -126 27 -47 41 -60 93 -85 50 -24 75 -29 133 -29 61 0 78
4 121 30 46 28 55 40 110 150 33 66 73 148 88 181 37 80 96 139 177 178 83 39
213 48 306 21 78 -23 166 -68 213 -110 64 -58 123 -192 152 -345 19 -99 16
-402 -4 -469 -60 -194 -226 -300 -637 -407 -326 -85 -555 -174 -658 -256 -98
-78 -200 -243 -222 -357 -14 -77 -12 -215 5 -295 36 -171 135 -297 291 -372
50 -24 133 -58 185 -76 92 -32 98 -33 259 -33 186 1 234 10 385 75 177 75 294
155 369 250 26 33 51 58 55 56 4 -3 31 -46 61 -97 81 -135 165 -202 330 -259
130 -45 346 -27 480 40 113 57 240 192 240 256 0 29 -25 64 -46 64 -5 0 -29
-27 -53 -59 -83 -115 -190 -156 -316 -121 -35 10 -64 28 -101 64 -52 51 -68
87 -99 221 -4 17 -10 424 -15 905 -9 964 -6 922 -74 1044 -62 110 -182 200
-341 254 -103 35 -335 92 -435 107 -113 18 -302 18 -420 0z m787 -1547 c-8
-472 -24 -600 -97 -769 -101 -237 -302 -371 -530 -356 -133 9 -214 61 -295
191 -133 214 -103 473 85 726 70 94 133 139 445 317 246 140 276 158 333 207
24 20 49 36 54 36 8 0 9 -108 5 -352z"/>
<path d="M14155 9814 c-49 -7 -236 -32 -415 -55 -321 -41 -370 -50 -370 -68 0
-18 29 -31 140 -61 93 -25 124 -38 160 -69 54 -45 103 -132 133 -238 21 -77
22 -84 22 -893 0 -746 -2 -822 -18 -903 -48 -237 -116 -314 -312 -352 -105
-21 -121 -28 -140 -65 l-16 -30 253 -2 c412 -4 1111 -3 1138 0 22 3 26 9 25
35 0 30 -3 33 -60 50 -139 42 -210 72 -237 99 -74 76 -110 169 -127 329 -14
129 -15 1265 -1 1389 16 153 47 277 89 364 72 149 234 276 411 323 91 24 320
24 409 -1 210 -57 335 -188 397 -412 13 -49 17 -153 25 -604 13 -776 2 -1093
-42 -1237 -23 -74 -93 -164 -150 -193 -21 -11 -92 -32 -156 -46 -65 -14 -121
-28 -125 -32 -4 -5 -2 -22 4 -40 l12 -31 683 4 c375 3 691 5 702 5 17 0 18 4
9 40 -9 36 -13 40 -42 40 -79 0 -223 63 -293 128 -52 49 -60 64 -79 163 -13
71 -17 219 -24 939 -8 824 -9 857 -29 920 -56 175 -180 323 -332 397 -168 81
-337 117 -559 117 -345 0 -638 -114 -867 -337 -50 -49 -52 -49 -57 -26 -6 25
-36 320 -36 352 0 19 -1 20 -125 1z"/>
<path d="M1933 6158 c-12 -16 -25 -62 -29 -103 -4 -46 -22 -85 -39 -85 -25 0
-17 -29 10 -36 24 -6 25 -8 25 -99 0 -88 1 -93 23 -99 12 -3 25 -6 30 -6 4 0
7 33 7 74 0 119 6 135 51 142 50 8 50 20 -1 28 l-40 6 0 65 c0 60 2 66 24 75
31 11 42 30 25 41 -21 13 -75 11 -86 -3z"/>
<path d="M12954 6162 c-10 -7 -18 -142 -19 -342 0 -65 2 -75 19 -78 10 -2 22
0 27 5 4 4 9 100 10 213 1 168 -1 205 -12 207 -8 2 -19 0 -25 -5z"/>
<path d="M590 6016 c0 -80 -4 -147 -9 -150 -5 -3 -20 11 -34 32 -41 58 -244
255 -255 248 -6 -4 -11 -19 -10 -34 1 -15 0 -103 -1 -197 -2 -118 0 -170 8
-169 6 1 21 2 34 2 22 2 22 3 19 137 -3 113 -2 135 11 135 8 0 71 -58 140
-130 70 -71 134 -130 142 -130 13 0 15 26 13 198 l-3 197 -27 3 -28 3 0 -145z"/>
<path d="M6058 6079 l5 -82 -24 6 c-94 26 -154 12 -189 -45 -37 -61 -18 -169
36 -205 32 -21 176 -15 199 8 13 13 16 48 18 205 l2 189 -26 3 -26 3 5 -82z
m-17 -125 c21 -12 2 -129 -23 -146 -7 -4 -26 -8 -43 -8 -90 0 -120 85 -54 151
18 18 29 20 66 15 25 -3 49 -8 54 -12z"/>
<path d="M14044 6135 c-10 -25 3 -44 25 -38 26 7 45 29 36 43 -10 15 -55 12
-61 -5z"/>
<path d="M10383 6133 c-8 -3 -11 -15 -7 -31 11 -51 17 -58 23 -27 5 23 13 31
36 35 17 3 29 10 27 15 -3 11 -59 17 -79 8z"/>
<path d="M9294 6111 c3 -5 -2 -26 -11 -47 -9 -22 -16 -45 -14 -51 1 -7 -7 -13
-17 -13 -30 0 -33 -11 -9 -30 20 -17 22 -27 22 -120 0 -96 1 -101 22 -107 43
-10 52 1 41 54 -6 36 -6 128 2 149 0 1 9 4 21 7 15 4 20 12 17 29 -2 13 -9 23
-16 23 -22 0 -42 36 -42 77 0 21 -5 38 -11 38 -5 0 -8 -4 -5 -9z"/>
<path d="M757 6103 c-4 -3 -7 -16 -7 -28 0 -20 7 -23 71 -29 39 -4 77 -10 84
-12 10 -4 12 1 8 18 -11 45 -32 58 -93 58 -31 0 -60 -3 -63 -7z"/>
<path d="M16627 6083 c-2 -4 -3 -24 -2 -43 2 -21 -4 -42 -13 -53 -14 -16 -14
-22 -3 -50 15 -35 16 -47 11 -127 l-4 -55 34 0 c39 0 36 -10 27 110 -4 58 0
75 18 75 16 0 26 25 19 45 -6 15 -16 19 -44 16 -13 -2 -13 0 -1 8 9 6 11 15 6
27 -5 11 -9 26 -9 34 -1 16 -31 26 -39 13z"/>
<path d="M3493 5999 l-42 -30 -30 22 c-26 19 -35 20 -102 13 -87 -11 -87 -9
-88 -161 l-1 -103 25 0 c25 0 25 0 25 93 0 99 14 137 50 137 42 0 52 -27 49
-129 l-3 -96 27 -3 c37 -4 48 28 46 130 -1 44 3 84 8 89 7 7 23 7 44 2 l34 -9
3 -102 3 -102 29 0 30 0 -5 88 c-10 145 -15 171 -35 182 -23 12 -17 14 -67
-21z"/>
<path d="M1129 6000 c-57 -30 -84 -109 -60 -172 5 -13 22 -38 39 -56 26 -28
36 -32 82 -32 92 0 150 54 150 140 0 115 -106 175 -211 120z m136 -55 c54 -53
16 -145 -58 -145 -81 0 -116 83 -60 142 35 37 84 38 118 3z"/>
<path d="M3703 6001 c-91 -42 -97 -163 -13 -235 64 -54 180 -23 207 54 28 83
6 161 -52 179 -65 21 -99 22 -142 2z m137 -61 c23 -23 25 -43 9 -89 -23 -66
-112 -73 -144 -10 -35 68 -5 119 70 119 32 0 51 -6 65 -20z"/>
<path d="M4135 6009 c-43 -12 -75 -45 -75 -77 0 -23 7 -30 36 -41 44 -16 69
-1 35 21 -28 17 -27 25 9 43 37 19 36 19 45 -7 4 -14 8 -18 12 -10 2 6 10 12
18 12 7 0 18 6 24 14 9 11 8 18 -4 30 -9 9 -22 16 -30 16 -7 0 -19 2 -27 4 -7
2 -27 0 -43 -5z"/>
<path d="M4953 6008 c-6 -7 -16 -31 -23 -53 -17 -52 -38 -95 -49 -95 -8 0 -31
48 -52 113 -11 31 -18 37 -41 37 -26 0 -28 -2 -22 -27 4 -16 22 -61 40 -102
19 -41 34 -80 34 -87 0 -20 29 -44 46 -37 24 9 97 162 110 231 5 27 3 32 -14
32 -11 0 -24 -6 -29 -12z"/>
<path d="M5182 6000 c-34 -21 -71 -87 -72 -128 0 -38 38 -100 72 -118 47 -24
145 -15 169 15 29 36 24 43 -25 36 -25 -4 -62 -4 -83 0 -44 7 -83 32 -68 43
17 12 35 51 35 75 0 13 7 32 15 43 15 19 15 19 30 0 12 -16 12 -22 0 -47 -14
-27 -14 -28 16 -43 21 -10 37 -13 48 -6 10 5 23 5 31 0 21 -13 30 -3 30 33 0
43 -24 75 -74 98 -53 24 -83 24 -124 -1z m136 -87 c2 -11 -3 -23 -11 -26 -10
-4 -14 3 -15 25 -1 33 21 34 26 1z"/>
<path d="M6261 6002 c-43 -24 -60 -56 -61 -110 0 -57 21 -104 60 -132 29 -20
40 -22 111 -17 44 3 86 11 94 17 11 9 15 36 15 104 0 50 -4 96 -8 102 -29 44
-157 66 -211 36z m124 -46 c33 -14 35 -18 35 -64 0 -57 -19 -80 -71 -88 -78
-13 -122 84 -64 141 28 29 51 31 100 11z"/>
<path d="M6678 6004 c-34 -18 -48 -43 -48 -85 l0 -32 43 47 c66 70 107 63 107
-19 0 -91 -22 -115 -105 -115 -38 0 -45 -3 -45 -20 0 -10 9 -24 19 -30 25 -13
116 -13 140 0 28 15 44 61 31 94 -5 15 -10 54 -10 86 0 40 -5 64 -16 74 -19
20 -80 20 -116 0z"/>
<path d="M7788 6004 c-63 -19 -88 -53 -88 -118 0 -74 34 -120 101 -140 54 -16
101 -12 120 10 21 25 3 44 -43 44 -61 0 -91 19 -106 65 -15 47 -2 82 37 97 31
11 78 1 91 -20 7 -13 9 -9 10 20 0 20 -3 39 -7 41 -23 14 -74 14 -115 1z"/>
<path d="M8125 6005 c-45 -16 -61 -34 -74 -82 -25 -91 42 -183 134 -183 124 0
187 157 97 243 -35 34 -101 43 -157 22z m133 -72 c9 -11 12 -33 8 -58 -8 -67
-62 -93 -125 -60 -31 15 -41 33 -41 69 0 31 35 74 63 78 32 5 80 -9 95 -29z"/>
<path d="M10650 5996 c-54 -22 -55 -23 -62 -72 -5 -27 -5 -77 -2 -111 5 -50
10 -64 26 -69 32 -10 38 7 26 77 -13 74 -1 121 34 140 52 28 73 -16 67 -143
l-4 -73 31 -3 c28 -3 32 0 38 29 3 17 6 59 6 93 0 67 18 106 49 106 35 0 43
-25 39 -125 l-3 -96 25 3 c25 3 25 4 28 108 2 95 1 108 -18 128 -34 36 -75 33
-111 -9 -24 -28 -28 -29 -40 -14 -53 64 -51 64 -129 31z"/>
<path d="M11058 6004 c-23 -10 -42 -27 -52 -49 -19 -40 -20 -66 -2 -125 17
-60 61 -90 128 -90 148 0 184 217 45 269 -38 15 -75 13 -119 -5z m130 -60 c34
-22 32 -95 -4 -123 -38 -30 -87 -28 -113 5 -21 27 -28 88 -13 110 23 34 82 37
130 8z"/>
<path d="M11515 6013 c-96 -6 -95 -6 -95 -74 0 -52 2 -60 18 -57 9 2 18 13 20
25 2 12 17 34 34 48 25 22 38 25 65 20 26 -5 35 -2 40 11 5 14 -13 37 -27 32
-3 -1 -27 -3 -55 -5z"/>
<path d="M12238 6006 c-37 -6 -69 -13 -71 -16 -3 -3 -7 -60 -10 -128 l-6 -123
31 3 31 3 -2 81 c-3 118 1 128 59 143 55 14 80 35 54 45 -8 3 -16 5 -17 5 -1
-1 -32 -6 -69 -13z"/>
<path d="M14399 6011 c-69 -22 -99 -61 -99 -128 0 -162 228 -197 270 -42 15
53 -4 124 -39 148 -31 22 -96 33 -132 22z m101 -67 c24 -24 18 -103 -10 -126
-52 -42 -130 -6 -130 62 0 51 48 95 94 86 17 -4 38 -13 46 -22z"/>
<path d="M14776 6005 c-67 -24 -80 -45 -87 -138 -6 -92 1 -117 35 -117 22 0
23 3 22 78 -1 119 37 168 100 127 25 -16 26 -20 22 -88 -3 -40 -8 -80 -12 -89
-7 -16 -2 -18 33 -18 l41 0 0 79 c0 112 -7 140 -44 162 -36 22 -57 23 -110 4z"/>
<path d="M15860 6003 c-63 -32 -86 -112 -54 -189 26 -64 40 -74 105 -74 84 0
109 12 109 52 0 25 -3 29 -12 20 -7 -7 -38 -12 -69 -12 -48 0 -60 4 -73 22 -9
12 -16 34 -16 48 0 37 42 104 67 108 24 4 93 -51 80 -64 -4 -4 -13 -1 -20 8
-13 17 -87 14 -87 -4 0 -38 51 -73 83 -56 12 6 23 6 32 -2 19 -16 29 20 20 76
-7 51 -29 70 -90 79 -28 4 -50 1 -75 -12z"/>
<path d="M16960 6009 c-65 -18 -100 -93 -80 -169 18 -66 48 -92 112 -98 66 -5
110 14 138 61 37 60 17 167 -37 195 -30 16 -96 21 -133 11z m108 -65 c34 -23
31 -95 -4 -123 -36 -28 -79 -27 -109 4 -31 30 -33 82 -5 113 25 26 85 30 118
6z"/>
<path d="M17362 6010 c-51 -8 -62 -21 -62 -76 0 -47 15 -57 70 -45 l32 6 -21
23 c-11 13 -17 30 -14 38 5 13 50 31 57 23 2 -2 8 -37 13 -77 11 -86 7 -90
-83 -99 -59 -6 -69 -21 -32 -47 42 -30 146 -12 161 27 3 8 -3 45 -14 83 -23
85 -24 114 -4 114 18 0 20 19 3 24 -33 11 -67 12 -106 6z"/>
<path d="M2209 5995 c-31 -17 -59 -71 -59 -114 0 -94 80 -151 192 -136 78 11
88 27 88 141 l0 95 -35 15 c-44 18 -152 18 -186 -1z m130 -36 c17 -6 31 -18
32 -27 6 -90 -18 -127 -82 -127 -68 0 -98 58 -64 125 21 41 54 50 114 29z"/>
<path d="M2556 6002 c-11 -19 14 -31 72 -34 41 -2 62 -7 62 -15 0 -7 -27 -44
-61 -83 -38 -45 -61 -80 -62 -98 l-2 -27 116 -3 c97 -2 118 0 122 13 12 29 -4
45 -42 45 -60 0 -111 12 -111 25 0 7 15 25 33 40 39 34 117 123 117 136 0 11
-237 12 -244 1z"/>
<path d="M2969 5996 c-32 -19 -54 -51 -64 -94 -10 -48 34 -136 77 -151 47 -17
113 -14 137 7 18 15 21 29 23 117 l3 99 -30 15 c-43 21 -115 24 -146 7z m96
-46 c3 -5 -4 -23 -16 -40 -17 -22 -20 -33 -12 -41 17 -17 42 -4 55 28 11 28
11 27 19 -22 10 -61 0 -75 -53 -75 -59 0 -78 14 -78 57 0 64 61 131 85 93z"/>
<path d="M5565 5996 c-49 -21 -58 -41 -63 -130 -5 -94 6 -126 42 -126 23 0 23
1 18 89 -5 86 -4 90 22 116 27 27 61 27 78 1 8 -12 12 -93 8 -164 l-2 -43 34
3 c31 3 33 5 36 45 6 78 -15 186 -39 206 -25 20 -91 22 -134 3z"/>
<path d="M8493 5990 c-51 -23 -55 -35 -51 -155 l3 -90 31 -3 30 -3 -4 88 c-4
83 -3 89 21 116 30 31 58 35 82 11 13 -14 16 -32 12 -93 -2 -42 -6 -85 -8 -96
-3 -15 2 -21 22 -23 46 -5 53 16 42 135 -8 84 -14 109 -28 120 -27 19 -103 16
-152 -7z"/>
<path d="M8895 6001 c-38 -5 -49 -10 -46 -21 2 -8 4 -33 5 -55 1 -35 4 -40 24
-38 12 2 40 14 62 28 22 14 40 22 40 19 0 -4 7 -1 15 6 23 19 19 57 -7 64 -13
3 -27 5 -33 4 -5 0 -32 -4 -60 -7z m10 -66 c-34 -28 -42 -26 -23 4 7 12 22 21
33 21 18 -1 16 -4 -10 -25z"/>
<path d="M9653 5997 c-23 -7 -47 -17 -53 -23 -6 -6 -12 -57 -13 -117 -2 -111
0 -117 42 -117 17 0 18 9 13 93 -5 107 2 121 68 132 30 5 40 11 40 26 0 22
-30 24 -97 6z"/>
<path d="M9910 5943 c1 -150 25 -193 109 -201 94 -9 128 37 132 179 2 83 2 84
-23 87 -25 3 -25 2 -33 -90 -4 -51 -11 -99 -17 -105 -15 -19 -62 -16 -87 5
-17 14 -21 30 -23 102 -3 85 -3 85 -30 88 l-28 3 0 -68z"/>
<path d="M10367 6003 c-2 -5 -4 -55 -6 -113 -1 -58 -4 -113 -7 -122 -4 -15 1
-18 30 -18 l36 0 0 124 c0 104 -3 125 -16 130 -21 8 -32 8 -37 -1z"/>
<path d="M12518 5990 c-62 -33 -74 -120 -27 -196 24 -39 57 -54 118 -54 54 0
85 19 96 59 7 22 5 23 -16 16 -101 -31 -175 0 -154 65 7 21 41 28 47 10 2 -6
27 -13 56 -17 42 -5 55 -11 62 -27 6 -17 9 -12 15 26 9 59 -1 104 -28 123 -31
22 -123 19 -169 -5z m146 -42 c26 -24 44 -68 28 -68 -6 0 -13 11 -16 25 -8 31
-42 46 -93 39 -36 -5 -37 -4 -19 10 28 23 71 20 100 -6z"/>
<path d="M13254 6003 c-94 -18 -97 -199 -4 -245 49 -25 136 -24 178 2 l32 20
0 84 c0 95 -11 116 -69 135 -33 11 -94 13 -137 4z m130 -59 c24 -23 21 -99 -4
-124 -28 -28 -87 -27 -117 2 -28 26 -32 92 -6 120 21 23 104 25 127 2z"/>
<path d="M13643 5994 c-44 -22 -59 -74 -43 -149 16 -78 51 -105 135 -105 66 0
91 14 79 44 -5 12 -19 16 -59 16 -65 0 -93 20 -102 72 -4 27 -1 45 12 64 17
26 32 28 120 12 23 -4 33 26 15 47 -17 20 -116 19 -157 -1z"/>
<path d="M15085 6001 c-76 -31 -87 -168 -20 -231 32 -30 124 -39 176 -17 39
16 49 41 49 122 0 80 -10 105 -48 120 -37 16 -124 19 -157 6z m138 -64 c21
-24 15 -90 -11 -119 -24 -29 -86 -24 -111 8 -36 45 -20 119 29 137 26 10 74
-4 93 -26z"/>
<path d="M15404 5987 c-23 -20 -27 -33 -35 -113 -10 -104 -6 -124 24 -124 21
0 22 4 23 78 0 93 17 136 57 140 38 5 49 -31 45 -138 l-3 -85 30 0 30 0 3 118
3 118 -35 14 c-53 23 -110 19 -142 -8z"/>
<path d="M15617 6003 c-13 -12 -7 -23 23 -38 25 -13 30 -22 30 -51 0 -21 4
-33 10 -29 16 10 12 -59 -5 -91 -13 -26 -13 -30 1 -41 27 -20 58 0 65 42 8 46
-11 197 -25 207 -14 10 -90 10 -99 1z"/>
<path d="M16225 5997 c-50 -16 -64 -49 -64 -164 l-1 -83 36 0 36 0 -8 48 c-20
116 0 166 65 160 36 -3 36 -3 44 -63 4 -33 6 -79 3 -102 l-6 -43 41 0 41 0 -7
58 c-4 31 -12 89 -18 127 l-12 70 -55 2 c-30 1 -73 -4 -95 -10z"/>
<path d="M743 5990 c-12 -5 -29 -22 -37 -39 -32 -60 -13 -136 45 -185 31 -26
38 -28 96 -23 35 2 74 12 88 21 24 15 25 22 25 104 0 119 -4 124 -111 128 -46
2 -94 -1 -106 -6z m146 -54 c17 -13 9 -92 -11 -112 -48 -48 -133 -9 -131 60 1
42 15 63 46 69 30 5 79 -3 96 -17z"/>
<path d="M14041 5894 c-1 -53 -4 -108 -7 -121 -6 -22 -3 -23 41 -23 29 0 44 4
40 10 -4 6 -10 59 -13 118 -7 106 -7 107 -33 110 l-27 3 -1 -97z"/>
<path d="M11528 5957 c-25 -20 -30 -47 -9 -47 12 0 20 9 24 28 6 33 5 35 -15
19z"/>
<path d="M6721 5944 c0 -6 -17 -19 -36 -30 -40 -22 -45 -34 -12 -34 36 0 60
22 54 51 -2 13 -5 19 -6 13z"/>
<path d="M4200 5871 c0 -52 -26 -71 -97 -71 -58 0 -64 -7 -32 -36 16 -14 36
-19 80 -19 70 0 95 19 104 80 5 36 2 42 -25 63 l-30 24 0 -41z"/>
<path d="M11563 5888 c-6 -7 -13 -25 -17 -40 -6 -28 -46 -48 -98 -48 -26 0
-29 -3 -22 -22 9 -30 4 -27 55 -34 30 -4 57 -1 82 9 36 16 37 17 37 70 0 58
-18 89 -37 65z"/>
<path d="M8988 5859 c-11 -33 -56 -59 -103 -59 -33 0 -45 -28 -20 -46 22 -16
98 -18 126 -4 45 25 64 111 29 130 -18 10 -22 7 -32 -21z"/>
<path d="M7073 5808 c-12 -15 -33 -129 -26 -140 2 -5 13 -8 24 -8 15 0 19 7
19 35 0 22 8 43 21 56 13 13 18 27 14 40 -4 11 -9 18 -12 15 -4 -3 -12 -1 -18
4 -9 7 -16 6 -22 -2z"/>
</g>
</svg>
